<svg xmlns="http://www.w3.org/2000/svg" viewBox="0 0 56.24 56.24"><defs><style>.cls-1{fill:none;}.cls-2{fill:#35495e;}.cls-3{fill:#2d4051;}.cls-4{fill:#2d3e4f;}.cls-5{fill:#f8e9af;}.cls-6{fill:#ecf0f1;}.cls-7{fill:#405c6c;}.cls-8{fill:#e54c3d;}.cls-9{fill:#c03a2c;}.cls-10{fill:#802f34;}</style></defs><g id="Layer_2" data-name="Layer 2"><g id="Layer_1-2" data-name="Layer 1"><rect class="cls-1" width="56.24" height="56.24"/><path class="cls-2" d="M15.05,39.58l26.66-4.32h0l-5-25A1.48,1.48,0,0,0,35,9.06L9.59,13.25l.19,0q2.34,13.23,4.69,26.47C14.66,39.65,14.86,39.61,15.05,39.58ZM34.14,14.25,14.91,17.88l-.19,0a1,1,0,0,1-.2-2.06l19.24-3.63a1,1,0,1,1,.38,2ZM18.37,19.72l13.24-2.5a1,1,0,0,1,.39,2l-13.25,2.5a.62.62,0,0,1-.19,0,1,1,0,0,1-.19-2.05Zm-.94,4.44,16.46-2.47A1.54,1.54,0,0,1,35.64,23l1.13,6.75a1.56,1.56,0,0,1-1.24,1.77l-16.07,3a1.53,1.53,0,0,1-1.78-1.19L16.16,26A1.53,1.53,0,0,1,17.43,24.16Z"/><path class="cls-3" d="M5.45,15.73a6.22,6.22,0,0,1,4.14-2.48l.19,0q2.34,13.23,4.69,26.47a5.22,5.22,0,0,0-.79.26,7,7,0,0,0-4.37,6.67L4.5,20.47A6.14,6.14,0,0,1,5.45,15.73Z"/><path class="cls-4" d="M13.68,40a5.22,5.22,0,0,1,.79-.26c.19-.05.39-.09.58-.12l26.66-4.32.26,0L42.65,39l-.16-.87L14.71,42.93a3,3,0,0,0-2.54,2.85,2.47,2.47,0,0,0,1,2.13,3,3,0,0,0,2.31.5l27.94-5.07.51,2.83L16.53,51.65a6.22,6.22,0,0,1-5.6-1.6,5.56,5.56,0,0,1-1.42-2.32,5.19,5.19,0,0,1-.2-1.1A7,7,0,0,1,13.68,40Z"/><path class="cls-5" d="M13.18,47.91a2.47,2.47,0,0,1-1-2.13,3,3,0,0,1,2.54-2.85L42.49,38.1l.16.87.78,4.37h0L15.49,48.41A3,3,0,0,1,13.18,47.91Z"/><path class="cls-6" d="M17.43,24.16l16.46-2.47A1.54,1.54,0,0,1,35.64,23l1.13,6.75a1.56,1.56,0,0,1-1.24,1.77l-16.07,3a1.53,1.53,0,0,1-1.78-1.19L16.16,26A1.53,1.53,0,0,1,17.43,24.16Z"/><path class="cls-7" d="M34.14,14.25,14.91,17.88l-.19,0a1,1,0,0,1-.2-2.06l19.24-3.63a1,1,0,1,1,.38,2Z"/><path class="cls-7" d="M31.61,17.22a1,1,0,0,1,.39,2l-13.25,2.5a.62.62,0,0,1-.19,0,1,1,0,0,1-.19-2.05Z"/><path class="cls-8" d="M41.77,35.13q2.35-13.25,4.69-26.47l.19,0-25.4-4.2a1.47,1.47,0,0,0-1.68,1.17l-5,25h0L41.19,35ZM21.27,8.47a1,1,0,0,1,1.22-.83l19.23,3.63a1,1,0,0,1-.19,2.05h-.2L22.1,9.68A1,1,0,0,1,21.27,8.47ZM38.7,16.35a1,1,0,0,1-1,.85l-.19,0-13.24-2.5a1,1,0,0,1,.38-2l13.24,2.5A1,1,0,0,1,38.7,16.35Zm1.39,5.08-1.53,7.24a1.53,1.53,0,0,1-1.78,1.2l-16.06-3a1.54,1.54,0,0,1-1.24-1.77l1.12-6.75a1.55,1.55,0,0,1,1.75-1.27l16.46,2.48A1.54,1.54,0,0,1,40.09,21.43Z"/><path class="cls-9" d="M50.79,11.16a6.11,6.11,0,0,0-4.14-2.48l-.19,0q-2.34,13.23-4.69,26.47a4.3,4.3,0,0,1,.79.26,7,7,0,0,1,4.37,6.66l4.81-26.16A6.12,6.12,0,0,0,50.79,11.16Z"/><path class="cls-10" d="M42.56,35.39a4.3,4.3,0,0,0-.79-.26L41.19,35,14.53,30.68l-.26,0-.67,3.75.15-.86,27.78,4.82a3,3,0,0,1,2.55,2.85,2.66,2.66,0,0,1-.32,1.34,2.47,2.47,0,0,1-.7.79,3,3,0,0,1-2.31.51L12.81,38.76l-.5,2.84,27.4,5.48a6.21,6.21,0,0,0,5.6-1.6,5.53,5.53,0,0,0,1.42-2.33,4.54,4.54,0,0,0,.2-1.1A7,7,0,0,0,42.56,35.39Z"/><path class="cls-5" d="M43.06,43.33a2.47,2.47,0,0,0,.7-.79,2.66,2.66,0,0,0,.32-1.34,3,3,0,0,0-2.55-2.85L13.75,33.53l-.15.86-.79,4.37h0l27.94,5.08A3,3,0,0,0,43.06,43.33Z"/><path class="cls-6" d="M38.81,19.59,22.35,17.11a1.55,1.55,0,0,0-1.75,1.27l-1.12,6.75a1.54,1.54,0,0,0,1.24,1.77l16.06,3a1.53,1.53,0,0,0,1.78-1.2l1.53-7.24A1.54,1.54,0,0,0,38.81,19.59Z"/><path class="cls-7" d="M22.1,9.68l19.23,3.63h.2a1,1,0,0,0,.19-2.05L22.49,7.64a1,1,0,1,0-.39,2Z"/><path class="cls-7" d="M24.63,12.64a1,1,0,0,0-.38,2l13.24,2.5.19,0a1,1,0,0,0,.19-2.06Z"/></g></g></svg>