<?xml version="1.0" encoding="utf-8"?>
<!-- Generator: Adobe Illustrator 25.4.1, SVG Export Plug-In . SVG Version: 6.00 Build 0)  -->
<svg version="1.1" id="courses-icon" xmlns="http://www.w3.org/2000/svg" xmlns:xlink="http://www.w3.org/1999/xlink" x="0px"
	 y="0px" viewBox="0 0 56.2 56.2" style="enable-background:new 0 0 56.2 56.2;" xml:space="preserve">
<style type="text/css">
	.st0{fill:none;}
	.st1{fill:#444444;}
</style>
<g>
	<rect class="st0" width="56.2" height="56.2"/>
	<path class="st1" d="M45.4,14c-1.7,0.1-3.2-1.2-3.3-3c-0.1-1.7,1.2-3.2,3-3.3c0.1,0,0.2,0,0.4,0c0.8,0,1.5-0.7,1.5-1.5
		s-0.7-1.5-1.5-1.5H15.5c-3.4,0-6.2,2.8-6.2,6.2l0,0l0,0v36.3c0,2.4,2,4.4,4.4,4.4h28.7c2.4,0,4.4-2,4.4-4.4V15.7
		c0.2-0.8-0.3-1.5-1.1-1.7C45.6,14,45.5,14,45.4,14z M15.5,7.7h24.6c-1.2,1.9-1.2,4.4,0,6.3H15.5c-1.7-0.1-3.1-1.6-3-3.3
		C12.6,9,13.9,7.8,15.5,7.7z M27.8,17h7.4v9.2l-2.8-2c-0.5-0.4-1.2-0.4-1.7,0l-2.9,2V17z M42.5,48.6H13.8c-0.8,0-1.4-0.6-1.4-1.4
		v-31c1,0.6,2,0.9,3.2,0.9h9.2v12.1c0,0.6,0.3,1.1,0.8,1.3c0.5,0.3,1.1,0.2,1.6-0.1l4.4-3.1l4.3,3.1c0.3,0.2,0.6,0.3,0.9,0.3
		c0.2,0,0.5-0.1,0.7-0.2c0.5-0.3,0.8-0.8,0.8-1.3V17h5.7v30.2C43.9,47.9,43.2,48.6,42.5,48.6z"/>
</g>
</svg>
