<svg xmlns="http://www.w3.org/2000/svg" viewBox="0 0 56.24 56.24"><defs><style>.cls-1{fill:none;}.cls-2{fill:#fdb431;}.cls-3{fill:#d64a34;}.cls-4{fill:#95b166;}.cls-5{fill:#fdc8a2;}.cls-6{fill:#fdb888;}.cls-7{fill:#4ab5e0;}.cls-8{fill:#2f89d2;}</style></defs><g id="Layer_2" data-name="Layer 2"><g id="Layer_1-2" data-name="Layer 1"><rect class="cls-1" width="56.24" height="56.24"/><path class="cls-1" d="M23.43,11.17c.06.3.64.7,2,.86.3,0,.63.05,1,.06a4.23,4.23,0,0,1-.49-2,4.39,4.39,0,0,1,.18-1.22C24.29,9.73,23.31,10.65,23.43,11.17Z"/><path class="cls-1" d="M36.84,8.2c-.07-.29-.64-.7-2-.86a11.53,11.53,0,0,0-1.21-.06H33.2a4.16,4.16,0,0,1,1.11,2.83c0,.09,0,.19,0,.28C36,9.59,37,8.71,36.84,8.2Z"/><path class="cls-2" d="M25.22,21.17a19.42,19.42,0,0,0-1.23-7,.72.72,0,1,0-1.34.5,17.69,17.69,0,0,1,1.14,6.47c0,.51,0,1-.08,1.54.4.92.74,1.81,1,2.64A19.56,19.56,0,0,0,25.22,21.17Z"/><path class="cls-3" d="M24.72,25.34c-.27-.83-.61-1.72-1-2.64A26.79,26.79,0,0,0,19,15.44c-.34-.38-.69-.73-1-1.07L13.57,15l-1.21,2.45c.9.9,1.83,1.89,2.75,3a42.84,42.84,0,0,1,4.95,7.34H25.4C25.23,27.06,25,26.23,24.72,25.34Z"/><path class="cls-3" d="M15.43,7.92a.73.73,0,0,0,.4.13L16,8a.72.72,0,0,0,.48-.89l-.58-1.95a.73.73,0,0,0-.89-.48.72.72,0,0,0-.48.89l.25.85.95-.5Z"/><polygon class="cls-2" points="17.98 14.37 18.48 14.29 14.93 10.83 15.43 7.92 15.77 5.94 14.82 6.44 11.38 8.25 6.99 5.94 7.82 10.83 4.27 14.29 9.18 15.01 11.38 19.46 12.36 17.46 13.57 15.01 17.98 14.37"/><polygon class="cls-2" points="13.08 28.94 14.48 25.77 11.12 26.59 8.53 24.27 8.27 27.73 5.27 29.47 8.48 30.79 9.21 34.18 11.45 31.54 14.23 31.82 14.24 30.82 13.08 28.94"/><polygon class="cls-2" points="10.59 43.11 9.09 43.48 7.95 42.45 7.83 43.98 6.5 44.76 7.92 45.34 8.25 46.84 9.24 45.67 10.77 45.83 9.96 44.52 10.59 43.11"/><path class="cls-2" d="M40.14,24.87a9.89,9.89,0,0,1,1.57-2.14,1.24,1.24,0,0,0-.14-1.84l-2-1.58a1.26,1.26,0,0,0-1.74.19,12.83,12.83,0,0,0-1.32,2A12.68,12.68,0,0,0,35,27.79h4.1A9.88,9.88,0,0,1,40.14,24.87Z"/><polygon class="cls-2" points="50.74 31.37 50.77 29.84 49.53 30.75 48.08 30.25 48.56 31.7 47.63 32.93 49.17 32.92 50.05 34.18 50.52 32.72 51.99 32.27 50.74 31.37"/><path class="cls-3" d="M51.13,22.47a3.88,3.88,0,0,0-2,.73A3.92,3.92,0,0,0,47.83,25a.72.72,0,0,0,.42.92.79.79,0,0,0,.25.05.72.72,0,0,0,.67-.47,2.45,2.45,0,0,1,.83-1.1,2.54,2.54,0,0,1,1.24-.46.71.71,0,0,0,.65-.76A.71.71,0,0,0,51.13,22.47Z"/><path class="cls-3" d="M39.75,8.07a.74.74,0,0,0,.25,0,.72.72,0,0,0,.67-.46l.56-1.46a.72.72,0,0,0-.41-.92.71.71,0,0,0-.92.41l-.56,1.46A.71.71,0,0,0,39.75,8.07Z"/><path class="cls-3" d="M6.78,39.88a.7.7,0,0,0-.12-1l-1.26-1a.7.7,0,0,0-1,.13.69.69,0,0,0,.12,1l1.25,1a.73.73,0,0,0,.44.15A.72.72,0,0,0,6.78,39.88Z"/><path class="cls-3" d="M48,37.48a.71.71,0,0,0-1,0l-1.18,1.19a.71.71,0,0,0,.5,1.21.71.71,0,0,0,.51-.21L48,38.49A.71.71,0,0,0,48,37.48Z"/><path class="cls-2" d="M20,8.83a.71.71,0,0,0,.66.45.75.75,0,0,0,.26,0,.7.7,0,0,0,.4-.92l-.79-2a.71.71,0,0,0-1.32.52Z"/><path class="cls-2" d="M10,22.82a.59.59,0,0,0,.29.07.71.71,0,0,0,.28-1.37L6.62,19.8a.71.71,0,0,0-.57,1.31Z"/><path class="cls-2" d="M49.19,40.16,48,41.45a.7.7,0,0,0,.06,1,.7.7,0,0,0,1-.06l1.15-1.28a.71.71,0,0,0-.06-1A.7.7,0,0,0,49.19,40.16Z"/><path class="cls-4" d="M33.36,18a26.81,26.81,0,0,0,.16-5.43,4.18,4.18,0,0,1-3.39,1.74A4.11,4.11,0,0,1,28.56,14a23.77,23.77,0,0,1,.21,6.56,23.7,23.7,0,0,1-2,7.24H30.1A27.22,27.22,0,0,0,33.36,18Z"/><path class="cls-2" d="M45.81,23.8a.71.71,0,0,0-1.21-.75,23.6,23.6,0,0,0-1.2,2.21,25.29,25.29,0,0,0-1,2.53h.05a1.47,1.47,0,0,1,1.23.66,23.17,23.17,0,0,1,1-2.58A20.67,20.67,0,0,1,45.81,23.8Z"/><path class="cls-5" d="M42.42,27.79H15.75a1.49,1.49,0,0,0-1.49,1.47l0,1.56v1l0,4.33H12.1a2.28,2.28,0,1,0,0,4.55h2.55v3.48a3.67,3.67,0,0,0,3.67,3.67h3a2.05,2.05,0,0,1,2,2v1.67H40.65V44a6.62,6.62,0,0,1,.54-2.6l2.14-5a6.9,6.9,0,0,0,.57-2.77v-4.4a1.48,1.48,0,0,0-1.48-1.49ZM19.9,41.54A6.38,6.38,0,0,1,18,42.93a6.54,6.54,0,0,1-2.38.57h0a.71.71,0,0,1,0-1.42,5,5,0,0,0,1.85-.45,4.91,4.91,0,0,0,1.52-1.08.71.71,0,0,1,1,0A.7.7,0,0,1,19.9,41.54Zm9.71,8.2H24.7a.72.72,0,0,1,0-1.43h4.91a.72.72,0,1,1,0,1.43ZM40.86,37a8.5,8.5,0,0,1-2,3.56.7.7,0,0,1-1,0,.71.71,0,0,1,0-1,7.12,7.12,0,0,0,1.68-3,7,7,0,0,0,.25-1.93.71.71,0,0,1,.71-.72h0a.71.71,0,0,1,.71.71A8.7,8.7,0,0,1,40.86,37Z"/><path class="cls-6" d="M18.88,40.55a4.91,4.91,0,0,1-1.52,1.08,5,5,0,0,1-1.85.45.71.71,0,0,0,0,1.42h0A6.54,6.54,0,0,0,18,42.93a6.38,6.38,0,0,0,1.95-1.39.7.7,0,0,0,0-1A.71.71,0,0,0,18.88,40.55Z"/><path class="cls-6" d="M29.61,48.31H24.7a.72.72,0,0,0,0,1.43h4.91a.72.72,0,1,0,0-1.43Z"/><path class="cls-6" d="M40.46,34h0a.71.71,0,0,0-.71.72,7,7,0,0,1-.25,1.93,7.12,7.12,0,0,1-1.68,3,.71.71,0,0,0,0,1,.7.7,0,0,0,1,0,8.5,8.5,0,0,0,2-3.56,8.7,8.7,0,0,0,.31-2.32A.71.71,0,0,0,40.46,34Z"/><path class="cls-7" d="M33.2,7.29h.39a11.53,11.53,0,0,1,1.21.06c1.4.16,2,.57,2,.86.11.51-.81,1.39-2.54,2.2a4.5,4.5,0,0,1-.3,1.29c2.42-1,4.19-2.32,3.88-3.72-.14-.63-.77-1.44-3-1.69a15,15,0,0,0-3.06,0A4.15,4.15,0,0,1,33.2,7.29Z"/><path class="cls-7" d="M26.44,12.09c-.34,0-.67,0-1-.06-1.4-.16-2-.56-2-.86-.12-.52.86-1.44,2.7-2.27a4.27,4.27,0,0,1,.81-1.48c-2.77,1-4.89,2.46-4.56,4,.14.64.77,1.45,3,1.69a11,11,0,0,0,1.32.07l.58,0A4.39,4.39,0,0,1,26.44,12.09Z"/><path class="cls-8" d="M33.52,12.56a4.59,4.59,0,0,0,.48-.87,4.5,4.5,0,0,0,.3-1.29c0-.09,0-.19,0-.28a4.21,4.21,0,0,0-2.46-3.81,4.12,4.12,0,0,0-1.72-.37,4.17,4.17,0,0,0-3.19,1.48,4.27,4.27,0,0,0-.81,1.48A4.39,4.39,0,0,0,26,10.12a4.23,4.23,0,0,0,.49,2,4.39,4.39,0,0,0,.81,1.05,4.22,4.22,0,0,0,1.31.85,4.11,4.11,0,0,0,1.57.31A4.18,4.18,0,0,0,33.52,12.56Z"/><path class="cls-8" d="M37.5,13.58c.21.23,1.15-.85,2.74-.83a3.72,3.72,0,0,1,1.5.34L44,10.25a5,5,0,0,0-3.34-.15C38.38,10.85,37.22,13.29,37.5,13.58Z"/><path class="cls-8" d="M48,18.26c.56,1.48-.12,2.74.16,2.86s2.26-1.78,2.18-4.16A5.11,5.11,0,0,0,49,13.77l-2,3A4,4,0,0,1,48,18.26Z"/><polygon class="cls-8" points="40.41 16.81 43.82 19.23 45.65 16.65 42.25 14.22 40.41 16.81"/><path class="cls-3" d="M41.35,13.58l.9.64,3.4,2.43.9.65.38-.55,2-3,2.5-3.66a1.41,1.41,0,0,0,.25-.94L51.52,7a1.45,1.45,0,0,0-1.76-1.29l-2.2.5a1.46,1.46,0,0,0-.82.51L44,10.25l-2.25,2.84Zm7.5-6.39a1.49,1.49,0,1,1-1.49,1.49A1.49,1.49,0,0,1,48.85,7.19Z"/><circle class="cls-2" cx="48.85" cy="8.68" r="1.49"/></g></g></svg>