<?xml version="1.0" encoding="utf-8"?>
<!-- Generator: Adobe Illustrator 25.4.1, SVG Export Plug-In . SVG Version: 6.00 Build 0)  -->
<svg version="1.1" id="lessons-icon" xmlns="http://www.w3.org/2000/svg" xmlns:xlink="http://www.w3.org/1999/xlink" x="0px"
	 y="0px" viewBox="0 0 56.2 56.2" style="enable-background:new 0 0 56.2 56.2;" xml:space="preserve">
<style type="text/css">
	.st0{fill:none;}
	.st1{fill:#FFFFFF;}
</style>
<g>
	<rect class="st0" width="56.2" height="56.2"/>
	<path class="st1" d="M45.6,14.1h-2.3V12c0-1.9-1.6-3.5-3.5-3.5h-2.3V6.4c0-1.9-1.6-3.5-3.5-3.5H10.6c-1.9,0-3.5,1.6-3.5,3.5v32.2
		c0,1.9,1.6,3.5,3.5,3.5h2.3v2.1c0,1.9,1.6,3.5,3.5,3.5h2.3v2.1c0,1.9,1.6,3.5,3.5,3.5h23.4c1.9,0,3.5-1.6,3.5-3.5V17.6
		C49.1,15.7,47.6,14.1,45.6,14.1z M10.1,38.6V6.4c0-0.3,0.2-0.5,0.5-0.5H34c0.3,0,0.5,0.2,0.5,0.5l0,0v24.3h-5.1
		c-1.8,0-3.2,1.4-3.2,3.2l0,0v5.2H10.6C10.3,39.1,10.1,38.9,10.1,38.6L10.1,38.6z M32.5,33.7L29.2,37v-3.1c0-0.1,0.1-0.2,0.2-0.2
		l0,0H32.5z M15.9,44.2v-2.1h11.8H28h0.2h0.1l0.2-0.1l0,0c0.1-0.1,0.2-0.1,0.2-0.2l8.3-8.3c0.3-0.3,0.4-0.7,0.4-1.1V11.5h2.3
		c0.3,0,0.5,0.2,0.5,0.5l0,0v32.2c0,0.3-0.2,0.5-0.5,0.5l0,0H16.4C16.2,44.7,15.9,44.5,15.9,44.2L15.9,44.2z M46.1,49.8
		c0,0.3-0.2,0.5-0.5,0.5l0,0H22.2c-0.3,0-0.5-0.2-0.5-0.5l0,0v-2.1h18.1c1.9,0,3.5-1.6,3.5-3.5V17.1h2.3c0.3,0,0.5,0.2,0.5,0.5l0,0
		L46.1,49.8z M14.4,12.1h16c0.8,0,1.5-0.7,1.5-1.5s-0.7-1.5-1.5-1.5h-16c-0.8,0-1.5,0.7-1.5,1.5S13.6,12.1,14.4,12.1L14.4,12.1z
		 M14.4,17.2h16c0.8,0,1.5-0.7,1.5-1.5c0-0.8-0.7-1.5-1.5-1.5h-16c-0.8,0-1.5,0.7-1.5,1.5C12.9,16.6,13.6,17.2,14.4,17.2L14.4,17.2z
		 M14.4,22.9h16c0.8,0,1.5-0.7,1.5-1.5s-0.7-1.5-1.5-1.5h-16c-0.8,0-1.5,0.7-1.5,1.5S13.6,22.9,14.4,22.9L14.4,22.9z M24.2,25.3
		h-9.8c-0.8,0-1.5,0.7-1.5,1.5s0.7,1.5,1.5,1.5l0,0h9.8c0.8,0,1.5-0.7,1.5-1.5S25,25.3,24.2,25.3z"/>
</g>
</svg>
