<?xml version="1.0" encoding="utf-8"?>
<!-- Generator: Adobe Illustrator 25.4.1, SVG Export Plug-In . SVG Version: 6.00 Build 0)  -->
<svg version="1.1" id="manage-icon" xmlns="http://www.w3.org/2000/svg" xmlns:xlink="http://www.w3.org/1999/xlink" x="0px"
	 y="0px" viewBox="0 0 56.2 56.2" style="enable-background:new 0 0 56.2 56.2;" xml:space="preserve">
<style type="text/css">
	.st0{fill:none;}
	.st1{fill:#444444;}
</style>
<g>
	<rect class="st0" width="56.2" height="56.2"/>
	<path class="st1" d="M39.6,53.1H16.6c-4.8,0-8.6-3.9-8.6-8.7c0-7.8,6.3-14.1,14.1-14.1h12c7.8,0,14.1,6.3,14.1,14.1
		C48.2,49.2,44.4,53.1,39.6,53.1z M22.1,33.3c-6.1,0-11.1,5-11.1,11.1c0,3.1,2.5,5.7,5.7,5.7h22.9c3.1,0,5.7-2.5,5.7-5.7
		c0-6.1-5-11.1-11.1-11.1H22.1z M28.1,25.3c-6.1,0-11.1-5-11.1-11.1S22,3.1,28.1,3.1s11.1,5,11.1,11.1c0,0,0,0,0,0
		C39.2,20.4,34.2,25.3,28.1,25.3L28.1,25.3z M28.1,6.1c-4.5,0-8.1,3.6-8.1,8.1s3.6,8.1,8.1,8.1s8.1-3.6,8.1-8.1l0,0
		C36.2,9.7,32.6,6.2,28.1,6.1L28.1,6.1z"/>
</g>
</svg>
