<?xml version="1.0" encoding="utf-8"?>
<!-- Generator: Adobe Illustrator 25.4.1, SVG Export Plug-In . SVG Version: 6.00 Build 0)  -->
<svg version="1.1" id="messages-icon" xmlns="http://www.w3.org/2000/svg" xmlns:xlink="http://www.w3.org/1999/xlink" x="0px"
	 y="0px" viewBox="0 0 56.2 56.2" style="enable-background:new 0 0 56.2 56.2;" xml:space="preserve">
<style type="text/css">
	.st0{fill:none;}
	.st1{fill:#444444;}
</style>
<g>
	<rect class="st0" width="56.2" height="56.2"/>
	<path class="st1" d="M50.8,9.2H5.4c-0.8,0-1.5,0.7-1.5,1.5v34.9c0,0.6,0.4,1.2,1,1.4c0.2,0.1,0.3,0.1,0.5,0.1
		c0.4,0,0.8-0.2,1.1-0.5l4.9-5.7h39.3c0.8,0,1.5-0.7,1.5-1.5V10.7C52.3,9.8,51.6,9.2,50.8,9.2z M49.3,37.9H10.8
		c-0.4,0-0.8,0.2-1.1,0.5l-2.7,3.1V12.2h42.4V37.9z M13.7,20.7c0-0.8,0.7-1.5,1.5-1.5H41c0.8,0,1.5,0.7,1.5,1.5s-0.7,1.5-1.5,1.5
		H15.2C14.4,22.2,13.7,21.6,13.7,20.7z M13.7,29.3c0-0.8,0.7-1.5,1.5-1.5h14.3c0.8,0,1.5,0.7,1.5,1.5s-0.7,1.5-1.5,1.5H15.2
		C14.4,30.8,13.7,30.1,13.7,29.3z"/>
</g>
</svg>
