<?xml version="1.0" encoding="utf-8"?>
<!-- Generator: Adobe Illustrator 25.4.1, SVG Export Plug-In . SVG Version: 6.00 Build 0)  -->
<svg version="1.1" id="settings-icon" xmlns="http://www.w3.org/2000/svg" xmlns:xlink="http://www.w3.org/1999/xlink" x="0px"
	 y="0px" viewBox="0 0 56.2 56.2" style="enable-background:new 0 0 56.2 56.2;" xml:space="preserve">
<style type="text/css">
	.st0{fill:none;}
	.st1{fill:#444444;}
</style>
<g>
	<rect class="st0" width="56.2" height="56.2"/>
	<path class="st1" d="M28.1,38.2c-5.6,0-10-4.5-10-10.1c0-5.6,4.5-10,10.1-10s10,4.5,10,10.1c0,0,0,0,0,0
		C38.1,33.7,33.6,38.2,28.1,38.2z M28.1,21.1c-3.9,0-7,3.2-7,7.1s3.2,7,7,7s7.1-3.2,7.1-7S32,21.1,28.1,21.1z M20.1,52.1
		c-0.5,0-1.1-0.1-1.5-0.4l-6-3.5c-1.5-0.9-2-2.7-1.1-4.2l2-3.4c-1.5-1.8-2.6-3.8-3.4-5.9H6c-1.7,0-3.1-1.4-3.1-3.1v-6.9
		c0-1.7,1.4-3.1,3.1-3.1h3.9c0.8-2.2,1.9-4.2,3.4-5.9l-2-3.4C10.5,10.7,11,8.9,12.5,8l6-3.5c1.5-0.9,3.4-0.3,4.2,1.1l2,3.4
		c2.3-0.4,4.6-0.4,6.8,0l2-3.4C34,5,34.6,4.4,35.4,4.2c0.8-0.2,1.6-0.1,2.3,0.3l6,3.5c1.5,0.9,2,2.7,1.1,4.2l-2,3.4
		c1.5,1.8,2.6,3.8,3.4,5.9h4c1.7,0,3.1,1.4,3.1,3.1v6.9c0,1.7-1.4,3.1-3.1,3.1h-4c-0.8,2.2-1.9,4.2-3.4,5.9l2,3.4
		c0.8,1.5,0.3,3.4-1.1,4.2l-6,3.5c-1.5,0.9-3.4,0.3-4.2-1.1c0,0,0,0,0,0l-2-3.4c-2.3,0.4-4.6,0.4-6.8,0l-2,3.4
		C22.2,51.5,21.2,52.1,20.1,52.1L20.1,52.1z M32.3,43.9c0.5,0,1,0.3,1.3,0.8l2.5,4.4c0,0,0.1,0,0.1,0l6-3.5c0,0,0-0.1,0-0.1
		l-2.5-4.4c-0.3-0.6-0.2-1.3,0.3-1.7c1.8-1.9,3.1-4.1,3.8-6.6c0.2-0.6,0.8-1.1,1.4-1.1h5c0,0,0.1,0,0.1-0.1l0,0v-6.9
		c0,0,0-0.1-0.1-0.1l0,0h-5c-0.7,0-1.2-0.4-1.4-1.1c-0.7-2.5-2-4.7-3.8-6.6c-0.5-0.5-0.5-1.2-0.2-1.8l2.5-4.4c0,0,0-0.1,0-0.1
		l-6-3.5c0,0-0.1,0-0.1,0l-2.5,4.4c-0.3,0.6-1,0.9-1.7,0.7c-2.5-0.6-5.1-0.6-7.6,0c-0.6,0.2-1.3-0.1-1.6-0.7l-2.6-4.3
		c0,0-0.1,0-0.1,0l-6,3.5c0,0,0,0.1,0,0.1l2.5,4.4c0.3,0.6,0.2,1.3-0.2,1.8c-1.8,1.9-3.1,4.1-3.8,6.6c-0.2,0.6-0.8,1.1-1.5,1H6
		c0,0-0.1,0-0.1,0.1l0,0v6.9c0,0,0,0.1,0.1,0.1c0,0,0,0,0,0h5c0.7,0,1.2,0.4,1.4,1.1c0.7,2.5,2,4.7,3.8,6.6c0.5,0.5,0.5,1.2,0.2,1.8
		L14,45.5c0,0,0,0.1,0,0.1l6,3.5c0,0,0.1,0,0.1,0l2.5-4.4c0.3-0.6,1-0.9,1.7-0.7c2.5,0.6,5.1,0.6,7.6,0C32.1,44,32.2,43.9,32.3,43.9
		L32.3,43.9z"/>
</g>
</svg>
