<svg xmlns="http://www.w3.org/2000/svg" viewBox="0 0 31.28 31.28"><defs><style>.cls-1{fill:#7d8085;}.cls-2{fill:none;}</style></defs><g id="Layer_2" data-name="Layer 2"><g id="Layer_1-2" data-name="Layer 1"><path class="cls-1" d="M30.05,25.22V7.16a1.48,1.48,0,0,0-.75-1.3A19.93,19.93,0,0,0,15.73,3.52l-.09,0-.09,0A19.93,19.93,0,0,0,2,5.86a1.5,1.5,0,0,0-.75,1.3V25.22a1.5,1.5,0,0,0,2.56,1.06,7.22,7.22,0,0,1,5-2,7.32,7.32,0,0,1,5.54,3.13l.07.1.19.21.27.2.1.05.22.09a1.17,1.17,0,0,0,.78,0,2.26,2.26,0,0,0,.32-.12l.1-.05a1.33,1.33,0,0,0,.19-.14,1.58,1.58,0,0,0,.3-.32l.06-.08a7.44,7.44,0,0,1,5.52-3.1,7.08,7.08,0,0,1,5,2,1.5,1.5,0,0,0,2.56-1.06ZM14.14,23l-.75-.43a9.37,9.37,0,0,0-4.49-1.3H8.64A9.63,9.63,0,0,0,4.92,22l-.69.3V8l.28-.13A16.91,16.91,0,0,1,9.17,6.42a16.68,16.68,0,0,1,4.52-.13l.45,0Zm12.91-.68L26.36,22a9.24,9.24,0,0,0-4-.76,9.44,9.44,0,0,0-4.5,1.3l-.75.43V6.34l.45,0a16.82,16.82,0,0,1,9.18,1.62l.28.13Z"/><rect class="cls-2" width="31.28" height="31.28"/></g></g></svg>