<svg xmlns="http://www.w3.org/2000/svg" viewBox="0 0 31.28 31.28"><defs><style>.cls-1{fill:#7d8085;}.cls-2{fill:none;}</style></defs><g id="Layer_2" data-name="Layer 2"><g id="Layer_1-2" data-name="Layer 1"><path class="cls-1" d="M10.29,3.11H6.2A3.48,3.48,0,0,0,2.73,6.58v4.09A3.47,3.47,0,0,0,6.2,14.13h4.09a3.47,3.47,0,0,0,3.47-3.46V6.58A3.48,3.48,0,0,0,10.29,3.11Zm-2,8h0a2.53,2.53,0,0,1,0-5.05h0A2.45,2.45,0,0,1,10,6.83a2.49,2.49,0,0,1,.75,1.79A2.53,2.53,0,0,1,8.26,11.15Z"/><path class="cls-1" d="M25,3.11H20.94a3.48,3.48,0,0,0-3.47,3.47v4.09a3.47,3.47,0,0,0,3.47,3.46H25a3.47,3.47,0,0,0,3.47-3.46V6.58A3.48,3.48,0,0,0,25,3.11Zm-2,8h0A2.53,2.53,0,0,1,23,6.1h0A2.53,2.53,0,0,1,25.5,8.61,2.53,2.53,0,0,1,23,11.15Z"/><path class="cls-1" d="M10.29,17.2H6.2a3.47,3.47,0,0,0-3.47,3.46v4.1A3.47,3.47,0,0,0,6.2,28.22h4.09a3.47,3.47,0,0,0,3.47-3.46v-4.1A3.47,3.47,0,0,0,10.29,17.2Zm-2,8h0a2.54,2.54,0,0,1-1.77-.72,2.49,2.49,0,0,1-.75-1.78,2.53,2.53,0,0,1,2.5-2.56h0a2.49,2.49,0,0,1,1.77.73,2.53,2.53,0,0,1-1.75,4.33Z"/><path class="cls-1" d="M25,17.2H20.94a3.47,3.47,0,0,0-3.47,3.46v4.1a3.47,3.47,0,0,0,3.47,3.46H25a3.47,3.47,0,0,0,3.47-3.46v-4.1A3.47,3.47,0,0,0,25,17.2Zm-2,8h0a2.53,2.53,0,0,1,0-5.06h0a2.53,2.53,0,0,1,0,5.06Z"/><rect class="cls-2" width="31.28" height="31.28"/></g></g></svg>