<svg xmlns="http://www.w3.org/2000/svg" viewBox="0 0 31.28 31.28"><defs><style>.cls-1{fill:#7d8085;}.cls-2{fill:none;}</style></defs><g id="Layer_2" data-name="Layer 2"><g id="Layer_1-2" data-name="Layer 1"><path class="cls-1" d="M2.2,29.83H19.71l.24,0h.15l.22,0h8.75a1.49,1.49,0,0,0,1.5-1.37,11.18,11.18,0,0,0-2.65-8.25h0a10.56,10.56,0,0,0-4.1-2.95l-1-.38.93-.52a7.43,7.43,0,1,0-7.28-13l-.31.18-.27-.24A7.43,7.43,0,1,0,8.72,16l1.63.52-1.66.44A10.7,10.7,0,0,0,3.94,19.7,11.22,11.22,0,0,0,.71,28.44,1.5,1.5,0,0,0,2.2,29.83Zm23.44-7.67a8.12,8.12,0,0,1,1.87,4.1l.09.57H21.23l0-.45a11.17,11.17,0,0,0-2.35-5.82l-.5-.63.78-.16a6.08,6.08,0,0,1,1.76-.15A7.07,7.07,0,0,1,25.64,22.16ZM17.33,12.7A7.28,7.28,0,0,0,18,6.49l-.14-.43.4-.19a4.43,4.43,0,1,1,1.9,8.43,4.41,4.41,0,0,1-2.7-.94l-.35-.27ZM6.53,8.89A4.44,4.44,0,1,1,11,13.32,4.44,4.44,0,0,1,6.53,8.89ZM3.79,26.25a8.1,8.1,0,0,1,2.28-4.43,7.08,7.08,0,0,1,5.45-2.2,7.09,7.09,0,0,1,4.77,2.54,8.29,8.29,0,0,1,1.87,4.1l.08.57H3.69Z"/><rect class="cls-2" width="31.28" height="31.28"/></g></g></svg>