<svg xmlns="http://www.w3.org/2000/svg" viewBox="0 0 31.28 31.28"><defs><style>.cls-1{fill:#7d8085;}.cls-2{fill:none;}</style></defs><g id="Layer_2" data-name="Layer 2"><g id="Layer_1-2" data-name="Layer 1"><path class="cls-1" d="M30.1,15.43C30.1,8.21,24,2.34,16.42,2.34S2.74,8.21,2.74,15.43A13.58,13.58,0,0,0,3,18a12.32,12.32,0,0,0,1.16,3.26l0,.17a5,5,0,0,1-.62,3,4.89,4.89,0,0,1-1.69,1.69A1.48,1.48,0,0,0,1.29,28,1.51,1.51,0,0,0,3,28.91l7.43-1.66.2.06a12.94,12.94,0,0,0,5.84,1.21C23.06,28.28,30.1,23,30.1,15.43ZM16.37,25.52H16a10,10,0,0,1-4.65-1.21,1.56,1.56,0,0,0-1-.13L6.73,25,7,24.2a8.26,8.26,0,0,0,.17-3.63A1.6,1.6,0,0,0,7,20.11a9.31,9.31,0,0,1-1-2.72,10.85,10.85,0,0,1-.21-2c0-5.57,4.8-10.09,10.68-10.09S27.1,9.86,27.1,15.43C27.1,21.68,20.76,25.36,16.37,25.52Z"/><path class="cls-1" d="M22.49,13.66a1.7,1.7,0,1,0,1.7,1.7A1.7,1.7,0,0,0,22.49,13.66Z"/><path class="cls-1" d="M16.49,13.66a1.7,1.7,0,1,0,1.69,1.7A1.7,1.7,0,0,0,16.49,13.66Z"/><path class="cls-1" d="M10.46,13.64a1.7,1.7,0,1,0,1.69,1.69A1.7,1.7,0,0,0,10.46,13.64Z"/><rect class="cls-2" width="31.28" height="31.28"/></g></g></svg>