<svg xmlns="http://www.w3.org/2000/svg" viewBox="0 0 110.48 8.64"><defs><style>.cls-1{fill:#fff;}.cls-2{fill:#0080ef;}</style></defs><g id="Layer_2" data-name="Layer 2"><g id="Layer_1-2" data-name="Layer 1"><path class="cls-1" d="M0,8.58V.06H3.61A2.49,2.49,0,0,1,4.7.3,2.75,2.75,0,0,1,5.56,1a2.92,2.92,0,0,1,.55.91,2.66,2.66,0,0,1,.2,1A3.09,3.09,0,0,1,6,4.25a2.8,2.8,0,0,1-.92,1.07,2.41,2.41,0,0,1-1.39.4h-2V8.58ZM1.66,4.27H3.58a.9.9,0,0,0,.55-.17,1.16,1.16,0,0,0,.38-.48,1.86,1.86,0,0,0,.13-.73,1.6,1.6,0,0,0-.16-.75,1.28,1.28,0,0,0-.42-.47,1.1,1.1,0,0,0-.56-.16H1.66Z"/><path class="cls-1" d="M7.48,8.58V.06H9.13V7.13h4.35V8.58Z"/><path class="cls-1" d="M16.8.06h1.68l3.13,8.52h-1.7L19.2,6.46H16.07l-.71,2.12h-1.7Zm2,5.23L17.64,1.78,16.46,5.29Z"/><path class="cls-1" d="M24.2,3.11V8.58H22.55V.06h1.33l4.39,5.62V.07h1.65V8.58H28.55Z"/><path class="cls-1" d="M37.62,7.13V8.58H31.7V.06h5.81V1.51H33.36V3.56h3.58V4.91H33.36V7.13Z"/><path class="cls-1" d="M45.28,1.51H42.56V8.58H40.92V1.51H38.18V.06h7.1Z"/><path class="cls-2" d="M46.34,8.58V.06h5.73V1.51H48v2.2h3.38V5.06H48V8.58Z"/><path class="cls-2" d="M53.23,8.58V.06H57A2.47,2.47,0,0,1,58.09.3,2.75,2.75,0,0,1,59,1a2.94,2.94,0,0,1,.56.91,2.66,2.66,0,0,1,.2,1,2.94,2.94,0,0,1-.18,1,2.77,2.77,0,0,1-.54.87,2.35,2.35,0,0,1-.81.59l1.94,3.2H58.3L56.54,5.72H54.89V8.58Zm1.66-4.31H57a.91.91,0,0,0,.56-.18,1.38,1.38,0,0,0,.38-.5,1.59,1.59,0,0,0,.14-.7,1.51,1.51,0,0,0-.16-.71,1.7,1.7,0,0,0-.42-.49,1,1,0,0,0-.56-.18h-2Z"/><path class="cls-2" d="M64.8,8.64a3.88,3.88,0,0,1-1.69-.36,4.1,4.1,0,0,1-1.31-1,4.51,4.51,0,0,1-1.15-3A4.12,4.12,0,0,1,61,2.69a4.74,4.74,0,0,1,.87-1.38,4.28,4.28,0,0,1,1.33-1A4,4,0,0,1,64.83,0a3.77,3.77,0,0,1,1.69.37,4,4,0,0,1,1.3,1,4.7,4.7,0,0,1,.84,1.39,4.49,4.49,0,0,1,0,3.2,4.74,4.74,0,0,1-.87,1.38,4.05,4.05,0,0,1-1.32.95A4,4,0,0,1,64.8,8.64ZM62.33,4.32a3.24,3.24,0,0,0,.17,1.07,3,3,0,0,0,.48.92,2.29,2.29,0,0,0,.78.63,2.42,2.42,0,0,0,2.12,0,2.41,2.41,0,0,0,.77-.65,2.84,2.84,0,0,0,.48-.93,3.67,3.67,0,0,0,.15-1,3.4,3.4,0,0,0-.16-1.06,2.87,2.87,0,0,0-.5-.91,2.31,2.31,0,0,0-.78-.64,2.18,2.18,0,0,0-1-.23,2.26,2.26,0,0,0-1,.24,2.47,2.47,0,0,0-.78.65,2.94,2.94,0,0,0-.48.91A3.37,3.37,0,0,0,62.33,4.32Z"/><path class="cls-2" d="M71.89,3.11V8.58H70.24V.06h1.33L76,5.68V.07H77.6V8.58H76.24Z"/><path class="cls-2" d="M85.75,1.51H83V8.58H81.39V1.51H78.66V.06h7.09Z"/><path class="cls-2" d="M92.74,7.13V8.58H86.82V.06h5.81V1.51H88.48V3.56h3.57V4.91H88.48V7.13Z"/><path class="cls-2" d="M95.69,3.11V8.58H94V.06h1.33l4.4,5.62V.07h1.64V8.58H100Z"/><path class="cls-2" d="M103.19,8.58V.06h3.09a4.4,4.4,0,0,1,2.33.57A3.59,3.59,0,0,1,110,2.17a4.7,4.7,0,0,1,.47,2.14A4.73,4.73,0,0,1,110,6.56a3.68,3.68,0,0,1-1.46,1.49,4.51,4.51,0,0,1-2.23.53Zm5.62-4.27a3.37,3.37,0,0,0-.3-1.46,2.22,2.22,0,0,0-.86-1,2.5,2.5,0,0,0-1.37-.36h-1.44V7.13h1.44a2.52,2.52,0,0,0,1.39-.37,2.47,2.47,0,0,0,.85-1A3.37,3.37,0,0,0,108.81,4.31Z"/></g></g></svg>