<svg xmlns="http://www.w3.org/2000/svg" viewBox="0 0 110.48 45.87"><defs><style>.cls-1{fill:#fff;}.cls-2{fill:#0080ef;}</style></defs><g id="Layer_2" data-name="Layer 2"><g id="Layer_1-2" data-name="Layer 1"><path class="cls-1" d="M0,27.2V18.68H3.61a2.49,2.49,0,0,1,1.09.24,2.72,2.72,0,0,1,.86.64,3.08,3.08,0,0,1,.55.92,2.62,2.62,0,0,1,.2,1A3.12,3.12,0,0,1,6,22.87a2.7,2.7,0,0,1-.92,1.06,2.42,2.42,0,0,1-1.39.41h-2V27.2Zm1.66-4.31H3.58a1,1,0,0,0,.55-.17,1.13,1.13,0,0,0,.38-.49,1.81,1.81,0,0,0,.13-.72,1.54,1.54,0,0,0-.16-.75,1.21,1.21,0,0,0-.42-.47,1,1,0,0,0-.56-.16H1.66Z"/><path class="cls-1" d="M7.48,27.2V18.68H9.13v7.06h4.35V27.2Z"/><path class="cls-1" d="M16.8,18.68h1.68l3.13,8.52h-1.7l-.71-2.13H16.07l-.71,2.13h-1.7Zm2,5.23-1.17-3.52-1.18,3.52Z"/><path class="cls-1" d="M24.2,21.72V27.2H22.55V18.68h1.33l4.39,5.61v-5.6h1.65V27.2H28.55Z"/><path class="cls-1" d="M37.62,25.74V27.2H31.7V18.68h5.81v1.45H33.36v2.05h3.58v1.34H33.36v2.22Z"/><path class="cls-1" d="M45.28,20.13H42.56V27.2H40.92V20.13H38.18V18.68h7.1Z"/><path class="cls-2" d="M46.34,27.2V18.68h5.73v1.45H48v2.19h3.38v1.36H48V27.2Z"/><path class="cls-2" d="M53.23,27.2V18.68H57a2.47,2.47,0,0,1,1.08.24,2.72,2.72,0,0,1,.86.64,3.11,3.11,0,0,1,.56.92,2.62,2.62,0,0,1,.2,1,3,3,0,0,1-.18,1,2.77,2.77,0,0,1-.54.87,2.32,2.32,0,0,1-.81.58l1.94,3.21H58.3l-1.76-2.86H54.89V27.2Zm1.66-4.31H57a.86.86,0,0,0,.56-.19,1.3,1.3,0,0,0,.38-.5,1.55,1.55,0,0,0,.14-.69,1.49,1.49,0,0,0-.16-.71,1.57,1.57,0,0,0-.42-.49,1,1,0,0,0-.56-.18h-2Z"/><path class="cls-2" d="M64.8,27.26a3.88,3.88,0,0,1-1.69-.36,4.1,4.1,0,0,1-1.31-1A4.52,4.52,0,0,1,61,24.53a4.4,4.4,0,0,1-.3-1.59A4.12,4.12,0,0,1,61,21.31a4.49,4.49,0,0,1,.87-1.38,4.28,4.28,0,0,1,1.33-1,3.86,3.86,0,0,1,1.66-.35,3.77,3.77,0,0,1,1.69.37,4.12,4.12,0,0,1,1.3,1,4.75,4.75,0,0,1,.84,1.4A4.51,4.51,0,0,1,69,23a4.38,4.38,0,0,1-.3,1.61A4.49,4.49,0,0,1,67.78,26a3.94,3.94,0,0,1-1.32,1A4,4,0,0,1,64.8,27.26Zm-2.47-4.32A3.18,3.18,0,0,0,62.5,24a2.88,2.88,0,0,0,.48.92,2.31,2.31,0,0,0,.78.64,2.38,2.38,0,0,0,1.05.23,2.25,2.25,0,0,0,1.07-.24,2.57,2.57,0,0,0,.77-.66,2.79,2.79,0,0,0,.48-.92,3.72,3.72,0,0,0,.15-1,3.47,3.47,0,0,0-.16-1.07,3,3,0,0,0-.5-.91,2.31,2.31,0,0,0-1.82-.87,2.14,2.14,0,0,0-1,.25A2.34,2.34,0,0,0,63,21a2.83,2.83,0,0,0-.48.91A3.32,3.32,0,0,0,62.33,22.94Z"/><path class="cls-2" d="M71.89,21.72V27.2H70.24V18.68h1.33L76,24.29v-5.6H77.6V27.2H76.24Z"/><path class="cls-2" d="M85.75,20.13H83V27.2H81.39V20.13H78.66V18.68h7.09Z"/><path class="cls-2" d="M92.74,25.74V27.2H86.82V18.68h5.81v1.45H88.48v2.05h3.57v1.34H88.48v2.22Z"/><path class="cls-2" d="M95.69,21.72V27.2H94V18.68h1.33l4.4,5.61v-5.6h1.64V27.2H100Z"/><path class="cls-2" d="M103.19,27.2V18.68h3.09a4.4,4.4,0,0,1,2.33.57,3.62,3.62,0,0,1,1.4,1.53,5.19,5.19,0,0,1,0,4.4,3.68,3.68,0,0,1-1.46,1.49,4.51,4.51,0,0,1-2.23.53Zm5.62-4.28a3.32,3.32,0,0,0-.3-1.45,2.3,2.3,0,0,0-.86-1,2.58,2.58,0,0,0-1.37-.35h-1.44v5.61h1.44a2.44,2.44,0,0,0,1.39-.37,2.41,2.41,0,0,0,.85-1A3.31,3.31,0,0,0,108.81,22.92Z"/><path class="cls-2" d="M73,31.93A20,20,0,0,1,55.24,42.87v3a23,23,0,0,0,21.1-13.94Z"/><path class="cls-1" d="M73,13.89h3.33A23,23,0,0,0,55.24,0V3A20,20,0,0,1,73,13.89Z"/><path class="cls-2" d="M55.24,0a23,23,0,0,0-21.1,13.94h3.33A20,20,0,0,1,55.24,3Z"/><path class="cls-1" d="M55.24,42.87A20,20,0,0,1,37.47,31.93H34.14a23,23,0,0,0,21.1,13.94Z"/></g></g></svg>