<?xml version="1.0" encoding="utf-8"?>
<!-- Generator: Adobe Illustrator 25.4.1, SVG Export Plug-In . SVG Version: 6.00 Build 0)  -->
<svg version="1.1" id="Layer_1" xmlns="http://www.w3.org/2000/svg" xmlns:xlink="http://www.w3.org/1999/xlink" x="0px" y="0px"
	 viewBox="0 0 31.3 31.3" style="enable-background:new 0 0 31.3 31.3;" xml:space="preserve">
<style type="text/css">
	.st0{fill:none;}
</style>
<g>
	<rect class="st0" width="31.3" height="31.3"/>
	<path d="M29.3,27l-9.4-9.4c1.2-1.7,1.9-3.7,1.9-5.8c0-5.6-4.5-10.1-10.1-10.1S1.6,6.2,1.6,11.8c0,5.6,4.5,10.1,10.1,10.1
		c2.2,0,4.4-0.8,6.1-2.1l9.4,9.4c0.3,0.3,0.7,0.4,1.1,0.4s0.8-0.1,1.1-0.4C29.9,28.6,29.9,27.6,29.3,27z M4.6,11.8
		c0-3.9,3.2-7.1,7.1-7.1s7.1,3.2,7.1,7.1c0,1.8-0.7,3.5-1.9,4.9c-1.3,1.4-3.2,2.2-5.1,2.2C7.7,18.8,4.6,15.7,4.6,11.8z"/>
</g>
</svg>
